<svg width="28" height="29" viewBox="0 0 28 29" fill="none" xmlns="http://www.w3.org/2000/svg">
<path d="M27.9994 14.6104C27.9994 13.5974 27.9085 12.6234 27.7397 11.6884H14.2852V17.2143H21.9735C21.6423 19 20.6358 20.513 19.1228 21.526V25.1104H23.7397C26.441 22.6234 27.9994 18.9611 27.9994 14.6104Z" fill="#4285F4"/>
<path d="M14.2858 28.5714C18.1429 28.5714 21.3767 27.2922 23.7403 25.1104L19.1234 21.526C17.8442 22.3831 16.2078 22.8896 14.2858 22.8896C10.565 22.8896 7.41564 20.3766 6.29226 17H1.51953V20.7013C3.87018 25.3701 8.70135 28.5714 14.2858 28.5714Z" fill="#34A853"/>
<path d="M6.29221 17C6.00649 16.1428 5.84416 15.2273 5.84416 14.2857C5.84416 13.3441 6.00649 12.4286 6.29221 11.5714V7.87012H1.51948C0.519481 9.86084 -0.000881332 12.0579 1.1205e-06 14.2857C1.1205e-06 16.5909 0.551949 18.7727 1.51948 20.7013L6.29221 17Z" fill="#FBBC05"/>
<path d="M14.2858 5.68182C16.3832 5.68182 18.2663 6.4026 19.7468 7.81818L23.8442 3.72078C21.3702 1.41558 18.1364 0 14.2858 0C8.70135 0 3.87018 3.2013 1.51953 7.87013L6.29226 11.5714C7.41563 8.19481 10.565 5.68182 14.2858 5.68182Z" fill="#EA4335"/>
</svg>
